<svg width="100" height="97" viewBox="0 0 100 97" fill="none" xmlns="http://www.w3.org/2000/svg">
<g clip-path="url(#clip0)">
<path d="M14.6484 17.2704C16.2665 17.2704 17.5781 16.0032 17.5781 14.44C17.5781 12.8769 16.2665 11.6096 14.6484 11.6096C13.0304 11.6096 11.7188 12.8769 11.7188 14.44C11.7188 16.0032 13.0304 17.2704 14.6484 17.2704Z" fill="#211D2F"/>
<path d="M26.3672 17.2704C27.9852 17.2704 29.2969 16.0032 29.2969 14.44C29.2969 12.8769 27.9852 11.6096 26.3672 11.6096C24.7492 11.6096 23.4375 12.8769 23.4375 14.44C23.4375 16.0032 24.7492 17.2704 26.3672 17.2704Z" fill="#211D2F"/>
<path d="M38.2812 17.2704C39.8993 17.2704 41.2109 16.0032 41.2109 14.44C41.2109 12.8769 39.8993 11.6096 38.2812 11.6096C36.6632 11.6096 35.3516 12.8769 35.3516 14.44C35.3516 16.0032 36.6632 17.2704 38.2812 17.2704Z" fill="#211D2F"/>
<path d="M100 20.1008V8.77927C100 4.09727 96.0572 0.288147 91.2109 0.288147H8.78906C3.94277 0.288147 0 4.09727 0 8.77927V20.1008C0 23.7906 2.44941 26.9367 5.85938 28.1051V34.9284C2.44941 36.0966 0 39.2426 0 42.9325V54.254C0 57.9439 2.44941 61.0899 5.85938 62.2583V65.5755C5.85938 70.2575 9.80215 74.0666 14.6484 74.0666H47.0703V80.4029C44.5773 81.2571 42.599 83.1684 41.7148 85.5768H17.0742C15.8648 82.2826 12.6084 79.9161 8.78906 79.9161C3.94277 79.9161 0 83.7252 0 88.4072C0 93.0892 3.94277 96.8983 8.78906 96.8983C12.6084 96.8983 15.8648 94.5317 17.0742 91.2376H41.7148C42.9242 94.5317 46.1807 96.8983 50 96.8983C53.8193 96.8983 57.0758 94.5317 58.2852 91.2376H82.9258C84.1352 94.5317 87.3916 96.8983 91.2109 96.8983C96.0572 96.8983 100 93.0892 100 88.4072C100 83.7252 96.0572 79.9161 91.2109 79.9161C87.3916 79.9161 84.1352 82.2826 82.9258 85.5768H58.2852C57.401 83.1684 55.4227 81.2571 52.9297 80.4029V74.0666H85.3516C90.1979 74.0666 94.1406 70.2575 94.1406 65.5755V62.2583C97.5506 61.0899 100 57.9439 100 54.254V42.9325C100 39.2426 97.5506 36.0966 94.1406 34.9282V28.1051C97.5506 26.9367 100 23.7906 100 20.1008ZM8.78906 91.2376C7.17363 91.2376 5.85938 89.9679 5.85938 88.4072C5.85938 86.8465 7.17363 85.5768 8.78906 85.5768C10.4045 85.5768 11.7188 86.8465 11.7188 88.4072C11.7188 89.9679 10.4045 91.2376 8.78906 91.2376ZM91.2109 85.5768C92.8264 85.5768 94.1406 86.8465 94.1406 88.4072C94.1406 89.9679 92.8264 91.2376 91.2109 91.2376C89.5955 91.2376 88.2812 89.9679 88.2812 88.4072C88.2812 86.8465 89.5955 85.5768 91.2109 85.5768ZM50 91.2376C48.3846 91.2376 47.0703 89.9679 47.0703 88.4072C47.0703 86.8465 48.3846 85.5768 50 85.5768C51.6154 85.5768 52.9297 86.8465 52.9297 88.4072C52.9297 89.9679 51.6154 91.2376 50 91.2376ZM88.2812 65.5755C88.2812 67.1362 86.967 68.4059 85.3516 68.4059H14.6484C13.033 68.4059 11.7188 67.1362 11.7188 65.5755V62.7451H88.2812V65.5755ZM94.1406 54.254C94.1406 55.8147 92.8264 57.0844 91.2109 57.0844H8.78906C7.17363 57.0844 5.85938 55.8147 5.85938 54.254V42.9325C5.85938 41.3718 7.17363 40.1021 8.78906 40.1021H91.2109C92.8264 40.1021 94.1406 41.3718 94.1406 42.9325V54.254ZM11.7188 34.4414V28.5919H88.2812V34.4414H11.7188ZM91.2109 22.9312H8.78906C7.17363 22.9312 5.85938 21.6614 5.85938 20.1008V8.77927C5.85938 7.21861 7.17363 5.9489 8.78906 5.9489H91.2109C92.8264 5.9489 94.1406 7.21861 94.1406 8.77927V20.1008C94.1406 21.6614 92.8264 22.9312 91.2109 22.9312Z" fill="#211D2F"/>
<path d="M85.3516 11.6096H55.8594C54.2414 11.6096 52.9297 12.8769 52.9297 14.44C52.9297 16.0031 54.2414 17.2704 55.8594 17.2704H85.3516C86.9695 17.2704 88.2812 16.0031 88.2812 14.44C88.2812 12.8769 86.9695 11.6096 85.3516 11.6096Z" fill="#211D2F"/>
<path d="M14.6484 51.4236C16.2665 51.4236 17.5781 50.1564 17.5781 48.5932C17.5781 47.0301 16.2665 45.7629 14.6484 45.7629C13.0304 45.7629 11.7188 47.0301 11.7188 48.5932C11.7188 50.1564 13.0304 51.4236 14.6484 51.4236Z" fill="#211D2F"/>
<path d="M26.3672 51.4236C27.9852 51.4236 29.2969 50.1564 29.2969 48.5932C29.2969 47.0301 27.9852 45.7629 26.3672 45.7629C24.7492 45.7629 23.4375 47.0301 23.4375 48.5932C23.4375 50.1564 24.7492 51.4236 26.3672 51.4236Z" fill="#211D2F"/>
<path d="M38.2812 51.4236C39.8993 51.4236 41.2109 50.1564 41.2109 48.5932C41.2109 47.0301 39.8993 45.7629 38.2812 45.7629C36.6632 45.7629 35.3516 47.0301 35.3516 48.5932C35.3516 50.1564 36.6632 51.4236 38.2812 51.4236Z" fill="#211D2F"/>
<path d="M85.3516 45.7629H55.8594C54.2414 45.7629 52.9297 47.0301 52.9297 48.5932C52.9297 50.1564 54.2414 51.4236 55.8594 51.4236H85.3516C86.9695 51.4236 88.2812 50.1564 88.2812 48.5932C88.2812 47.0301 86.9695 45.7629 85.3516 45.7629Z" fill="#211D2F"/>
</g>
<defs>
<clipPath id="clip0">
<rect width="100" height="96.6102" fill="white" transform="translate(0 0.288147)"/>
</clipPath>
</defs>
</svg>
