<svg width="100" height="97" viewBox="0 0 100 97" fill="none" xmlns="http://www.w3.org/2000/svg">
<g clip-path="url(#clip0)">
<path d="M91.2109 0.288147H8.78906C3.94277 0.288147 0 4.09727 0 8.77927V88.4072C0 93.0892 3.94277 96.8983 8.78906 96.8983H91.2109C96.0572 96.8983 100 93.0892 100 88.4072V8.77927C100 4.09727 96.0572 0.288147 91.2109 0.288147ZM5.85938 8.77927C5.85938 7.21861 7.17363 5.9489 8.78906 5.9489H23.4375V22.9312H5.85938V8.77927ZM94.1406 88.4072C94.1406 89.9679 92.8264 91.2376 91.2109 91.2376H8.78906C7.17363 91.2376 5.85938 89.9679 5.85938 88.4072V28.5919H94.1406V88.4072ZM94.1406 22.9312H29.2969V5.9489H91.2109C92.8264 5.9489 94.1406 7.21861 94.1406 8.77927V22.9312Z" fill="#211D2F"/>
<path d="M85.3516 11.6096H79.4922C77.8742 11.6096 76.5625 12.8769 76.5625 14.44C76.5625 16.0031 77.8742 17.2704 79.4922 17.2704H85.3516C86.9695 17.2704 88.2812 16.0031 88.2812 14.44C88.2812 12.8769 86.9695 11.6096 85.3516 11.6096Z" fill="#211D2F"/>
<path d="M67.5781 11.6096H61.7188C60.1008 11.6096 58.7891 12.8769 58.7891 14.44C58.7891 16.0031 60.1008 17.2704 61.7188 17.2704H67.5781C69.1961 17.2704 70.5078 16.0031 70.5078 14.44C70.5078 12.8769 69.1961 11.6096 67.5781 11.6096Z" fill="#211D2F"/>
<path d="M50 11.6096H44.1406C42.5227 11.6096 41.2109 12.8769 41.2109 14.44C41.2109 16.0031 42.5227 17.2704 44.1406 17.2704H50C51.618 17.2704 52.9297 16.0031 52.9297 14.44C52.9297 12.8769 51.618 11.6096 50 11.6096Z" fill="#211D2F"/>
<path d="M55.8594 34.4414H14.6484C13.0305 34.4414 11.7188 35.7086 11.7188 37.2717V48.5932C11.7188 50.1564 13.0305 51.4236 14.6484 51.4236H55.8594C57.4773 51.4236 58.7891 50.1564 58.7891 48.5932V37.2717C58.7891 35.7086 57.4773 34.4414 55.8594 34.4414ZM52.9297 45.7629H17.5781V40.1021H52.9297V45.7629Z" fill="#211D2F"/>
<path d="M85.3516 34.4414H67.5781C65.9602 34.4414 64.6484 35.7086 64.6484 37.2717V82.7464C64.6484 84.3096 65.9602 85.5768 67.5781 85.5768H85.3516C86.9695 85.5768 88.2812 84.3096 88.2812 82.7464V37.2717C88.2812 35.7086 86.9695 34.4414 85.3516 34.4414ZM82.4219 79.9161H70.5078V40.1021H82.4219V79.9161Z" fill="#211D2F"/>
<path d="M55.8594 57.0844H14.6484C13.0305 57.0844 11.7188 58.3516 11.7188 59.9147V82.7464C11.7188 84.3096 13.0305 85.5768 14.6484 85.5768H55.8594C57.4773 85.5768 58.7891 84.3096 58.7891 82.7464V59.9147C58.7891 58.3516 57.4773 57.0844 55.8594 57.0844ZM52.9297 79.9161H17.5781V62.7451H52.9297V79.9161Z" fill="#211D2F"/>
</g>
<defs>
<clipPath id="clip0">
<rect width="100" height="96.6102" fill="white" transform="translate(0 0.288147)"/>
</clipPath>
</defs>
</svg>
