<svg width="60" height="60" viewBox="0 0 60 60" fill="none" xmlns="http://www.w3.org/2000/svg">
<path d="M55.9753 15.6761C53.2927 11.0797 49.6538 7.4407 45.0578 4.75831C40.4611 2.07578 35.4428 0.734863 29.9995 0.734863C24.5569 0.734863 19.537 2.0762 14.9413 4.75831C10.3448 7.44057 6.70612 11.0797 4.02345 15.6761C1.3412 20.2724 0 25.2916 0 30.7336C0 37.2706 1.9072 43.1488 5.72255 48.3698C9.5375 53.5912 14.4658 57.2042 20.5072 59.2092C21.2104 59.3398 21.731 59.248 22.0695 58.9362C22.4081 58.6239 22.5772 58.2329 22.5772 57.7647C22.5772 57.6866 22.5705 56.9838 22.5575 55.6555C22.5441 54.3271 22.5378 53.1683 22.5378 52.1796L21.6393 52.335C21.0665 52.4399 20.3438 52.4844 19.4713 52.4718C18.5993 52.4596 17.694 52.3682 16.7567 52.1983C15.8189 52.0299 14.9467 51.6393 14.1394 51.0273C13.3325 50.4153 12.7596 49.6143 12.421 48.6254L12.0304 47.7265C11.77 47.1281 11.3601 46.4633 10.8002 45.7346C10.2402 45.0053 9.6739 44.5108 9.10106 44.2505L8.82757 44.0547C8.64533 43.9246 8.47623 43.7676 8.31985 43.5855C8.1636 43.4034 8.04663 43.2212 7.96851 43.0387C7.89025 42.856 7.9551 42.7062 8.16374 42.5887C8.37238 42.4712 8.74944 42.4141 9.29657 42.4141L10.0775 42.5308C10.5984 42.6352 11.2426 42.947 12.0111 43.4681C12.7792 43.9889 13.4106 44.6658 13.9054 45.4988C14.5047 46.5667 15.2267 47.3805 16.0734 47.9405C16.9195 48.5005 17.7725 48.78 18.6317 48.78C19.4909 48.78 20.233 48.7149 20.8582 48.5853C21.4828 48.455 22.0688 48.2593 22.6159 47.999C22.8503 46.2536 23.4884 44.9126 24.5297 43.9753C23.0455 43.8193 21.7111 43.5844 20.5259 43.2721C19.3414 42.9593 18.1173 42.4517 16.8545 41.748C15.591 41.0452 14.5429 40.1724 13.7098 39.1313C12.8766 38.0895 12.1928 36.7219 11.6594 35.0297C11.1256 33.3367 10.8587 31.3838 10.8587 29.1705C10.8587 26.0189 11.8876 23.3371 13.9449 21.1234C12.9811 18.7541 13.0721 16.0979 14.2181 13.1553C14.9733 12.9207 16.0933 13.0968 17.5774 13.6825C19.0619 14.2684 20.1487 14.7704 20.8391 15.1866C21.5295 15.6027 22.0826 15.9552 22.4993 16.2412C24.9216 15.5644 27.4214 15.2259 29.9992 15.2259C32.5771 15.2259 35.0774 15.5644 37.4998 16.2412L38.9842 15.3041C39.9992 14.6789 41.1978 14.1059 42.5772 13.5851C43.9574 13.0645 45.0128 12.9211 45.7423 13.1557C46.9137 16.0985 47.0181 18.7545 46.0541 21.1238C48.1112 23.3375 49.1405 26.02 49.1405 29.1709C49.1405 31.3843 48.8726 33.3433 48.3397 35.0492C47.8061 36.7555 47.1164 38.1217 46.2704 39.1508C45.4233 40.1798 44.3685 41.0457 43.1057 41.7484C41.8426 42.4516 40.6181 42.9592 39.4336 43.272C38.2485 43.5847 36.9141 43.8198 35.43 43.976C36.7836 45.1474 37.4606 46.9965 37.4606 49.5223V57.7637C37.4606 58.2318 37.6234 58.6227 37.9493 58.9351C38.2748 59.2469 38.7888 59.3387 39.492 59.208C45.5342 57.2033 50.4625 53.5901 54.2773 48.3687C58.0917 43.1477 59.9996 37.2695 59.9996 30.7325C59.9982 25.2912 58.6563 20.2724 55.9753 15.6761Z" fill="#FEFDFE"/>
</svg>
