<svg width="60" height="60" viewBox="0 0 60 60" fill="none" xmlns="http://www.w3.org/2000/svg">
<path d="M13.6326 19.9612H0.742096V58.6717H13.6326V19.9612Z" fill="#FEFDFE"/>
<path d="M55.9373 23.4971C53.2295 20.5413 49.6482 19.0631 45.1954 19.0631C43.5548 19.0631 42.0635 19.2649 40.7221 19.6688C39.3811 20.0724 38.2485 20.6387 37.3238 21.368C36.3996 22.0972 35.6635 22.7742 35.117 23.3989C34.5974 23.9923 34.0892 24.6835 33.5934 25.4654V19.9609H20.7413L20.7807 21.8362C20.8071 23.0866 20.8201 26.9405 20.8201 33.3985C20.8201 39.857 20.7941 48.2813 20.7419 58.672H33.5934V37.07C33.5934 35.7422 33.7358 34.6877 34.0229 33.9058C34.5702 32.577 35.3961 31.4645 36.5036 30.5665C37.6108 29.6673 38.9841 29.2181 40.6252 29.2181C42.8641 29.2181 44.5118 29.9928 45.5667 31.5423C46.6212 33.0916 47.1485 35.2336 47.1485 37.9681V58.6708H60V36.4847C59.9991 30.781 58.6459 26.452 55.9373 23.4971Z" fill="#FEFDFE"/>
<path d="M7.26549 1.32825C5.1043 1.32825 3.35316 1.96021 2.01165 3.22292C0.670276 4.4859 0 6.08039 0 8.0079C0 9.90845 0.650984 11.4975 1.95309 12.7732C3.25478 14.049 4.97378 14.6873 7.10911 14.6873H7.18723C9.37497 14.6873 11.1395 14.0496 12.4805 12.7732C13.8214 11.4975 14.4789 9.909 14.453 8.0079C14.427 6.08052 13.7625 4.4859 12.4608 3.22292C11.1592 1.95967 9.42682 1.32825 7.26549 1.32825Z" fill="#FEFDFE"/>
</svg>
