<svg width="100" height="97" viewBox="0 0 100 97" fill="none" xmlns="http://www.w3.org/2000/svg">
<g clip-path="url(#clip0)">
<path d="M97.0703 0.288147H85.3516C83.7336 0.288147 82.4219 1.5554 82.4219 3.11852V5.9489H58.2852C57.0758 2.65472 53.8193 0.288147 50 0.288147C46.1807 0.288147 42.9242 2.65472 41.7148 5.9489H17.5781V3.11852C17.5781 1.5554 16.2664 0.288147 14.6484 0.288147H2.92969C1.31172 0.288147 0 1.5554 0 3.11852V14.44C0 16.0031 1.31172 17.2704 2.92969 17.2704H14.6484C16.2664 17.2704 17.5781 16.0031 17.5781 14.44V11.5719H29.7611C19.1916 18.0391 12.7666 28.9646 11.9938 40.5629C8.54258 41.7094 6.05469 44.8749 6.05469 48.5932C6.05469 53.2752 9.99746 57.0844 14.8438 57.0844C19.69 57.0844 23.6328 53.2752 23.6328 48.5932C23.6328 44.9364 21.2275 41.812 17.8652 40.6191C18.9055 27.2886 28.8414 15.8073 42.1281 12.5497C43.5684 15.3446 46.5549 17.2704 50 17.2704C53.4451 17.2704 56.4316 15.3446 57.8719 12.5499C71.1588 15.8075 81.0945 27.2888 82.1348 40.6193C78.7725 41.812 76.3672 44.9364 76.3672 48.5932C76.3672 53.2752 80.31 57.0844 85.1562 57.0844C90.0025 57.0844 93.9453 53.2752 93.9453 48.5932C93.9453 44.8749 91.4574 41.7094 88.0062 40.5629C87.2318 28.9414 80.7877 18.0642 70.2389 11.6097H82.4219V14.44C82.4219 16.0031 83.7336 17.2704 85.3516 17.2704H97.0703C98.6883 17.2704 100 16.0031 100 14.44V3.11852C100 1.5554 98.6883 0.288147 97.0703 0.288147ZM11.7188 11.6097H5.85938V5.9489H11.7188V11.6097ZM14.8438 51.4236C13.2283 51.4236 11.9141 50.1539 11.9141 48.5932C11.9141 47.0326 13.2283 45.7629 14.8438 45.7629C16.4592 45.7629 17.7734 47.0326 17.7734 48.5932C17.7734 50.1539 16.4592 51.4236 14.8438 51.4236ZM50 11.6097C48.3846 11.6097 47.0703 10.3399 47.0703 8.77927C47.0703 7.21861 48.3846 5.9489 50 5.9489C51.6154 5.9489 52.9297 7.21861 52.9297 8.77927C52.9297 10.3399 51.6154 11.6097 50 11.6097ZM85.1562 45.7629C86.7717 45.7629 88.0859 47.0326 88.0859 48.5932C88.0859 50.1539 86.7717 51.4236 85.1562 51.4236C83.5408 51.4236 82.2266 50.1539 82.2266 48.5932C82.2266 47.0326 83.5408 45.7629 85.1562 45.7629ZM94.1406 11.6097H88.2812V5.9489H94.1406V11.6097Z" fill="#211D2F"/>
<path d="M75.875 58.3446L52.4375 24.3803C52.4367 24.3792 52.4357 24.378 52.4349 24.3767C52.4265 24.3646 52.4174 24.3531 52.4088 24.3412C52.3685 24.2848 52.3261 24.2305 52.282 24.1775C51.0474 22.6955 48.6967 22.7955 47.5912 24.3412C47.5826 24.3531 47.5734 24.3646 47.565 24.3767C47.5642 24.378 47.5633 24.379 47.5625 24.3803L24.125 58.3448C23.3502 59.4673 23.5035 60.9622 24.491 61.9162C30.3361 67.5632 34.0564 74.9448 35.0699 82.8423C34.615 83.1976 34.1758 83.578 33.7594 83.9897C31.0076 86.7091 29.4922 90.2884 29.4922 94.0679C29.4922 95.6311 30.8039 96.8983 32.4219 96.8983H67.5781C69.1961 96.8983 70.5078 95.6311 70.5078 94.0679C70.5078 90.2884 68.9924 86.7092 66.2408 83.9895C65.8242 83.5778 65.3851 83.1974 64.93 82.8421C65.9433 74.9442 69.6637 67.5626 75.5088 61.9162C76.4965 60.9622 76.6498 59.4672 75.875 58.3446ZM50 57.0844C51.6154 57.0844 52.9297 58.3541 52.9297 59.9147C52.9297 61.4754 51.6154 62.7451 50 62.7451C48.3845 62.7451 47.0703 61.4754 47.0703 59.9147C47.0703 58.3541 48.3845 57.0844 50 57.0844ZM35.8512 91.2376C37.0701 87.8726 40.3744 85.3881 44.1406 85.3881H55.8594C59.6256 85.3881 62.9299 87.8726 64.1488 91.2376H35.8512ZM59.4228 80.1581C58.2705 79.874 57.076 79.7274 55.8594 79.7274H44.1406C42.924 79.7274 41.7295 79.874 40.5771 80.1583C39.206 72.5297 35.6453 65.3987 30.2939 59.61L47.0703 35.2984V51.9106C43.6603 53.079 41.2109 56.2251 41.2109 59.9149C41.2109 64.5969 45.1537 68.4061 50 68.4061C54.8463 68.4061 58.789 64.5969 58.789 59.9149C58.789 56.2251 56.3396 53.079 52.9297 51.9106V35.2984L69.7062 59.61C64.3547 65.3981 60.7937 72.5293 59.4228 80.1581Z" fill="#211D2F"/>
</g>
<defs>
<clipPath id="clip0">
<rect width="100" height="96.6102" fill="white" transform="translate(0 0.288147)"/>
</clipPath>
</defs>
</svg>
