<svg width="100" height="100" viewBox="0 0 100 100" fill="none" xmlns="http://www.w3.org/2000/svg">
<path d="M14.6484 17.5781C16.2665 17.5781 17.5781 16.2665 17.5781 14.6484C17.5781 13.0304 16.2665 11.7188 14.6484 11.7188C13.0304 11.7188 11.7188 13.0304 11.7188 14.6484C11.7188 16.2665 13.0304 17.5781 14.6484 17.5781Z" fill="#FEFDFE"/>
<path d="M26.3672 17.5781C27.9852 17.5781 29.2969 16.2665 29.2969 14.6484C29.2969 13.0304 27.9852 11.7188 26.3672 11.7188C24.7492 11.7188 23.4375 13.0304 23.4375 14.6484C23.4375 16.2665 24.7492 17.5781 26.3672 17.5781Z" fill="#FEFDFE"/>
<path d="M38.2812 17.5781C39.8993 17.5781 41.2109 16.2665 41.2109 14.6484C41.2109 13.0304 39.8993 11.7188 38.2812 11.7188C36.6632 11.7188 35.3516 13.0304 35.3516 14.6484C35.3516 16.2665 36.6632 17.5781 38.2812 17.5781Z" fill="#FEFDFE"/>
<path d="M100 20.5078V8.78906C100 3.94277 96.0572 0 91.2109 0H8.78906C3.94277 0 0 3.94277 0 8.78906V20.5078C0 24.3271 2.44941 27.5836 5.85938 28.793V35.8557C2.44941 37.0648 0 40.3213 0 44.1406V55.8594C0 59.6787 2.44941 62.9352 5.85938 64.1445V67.5781C5.85938 72.4244 9.80215 76.3672 14.6484 76.3672H47.0703V82.9258C44.5773 83.81 42.599 85.7883 41.7148 88.2812H17.0742C15.8648 84.8715 12.6084 82.4219 8.78906 82.4219C3.94277 82.4219 0 86.3646 0 91.2109C0 96.0572 3.94277 100 8.78906 100C12.6084 100 15.8648 97.5504 17.0742 94.1406H41.7148C42.9242 97.5504 46.1807 100 50 100C53.8193 100 57.0758 97.5504 58.2852 94.1406H82.9258C84.1352 97.5504 87.3916 100 91.2109 100C96.0572 100 100 96.0572 100 91.2109C100 86.3646 96.0572 82.4219 91.2109 82.4219C87.3916 82.4219 84.1352 84.8715 82.9258 88.2812H58.2852C57.401 85.7883 55.4227 83.81 52.9297 82.9258V76.3672H85.3516C90.1979 76.3672 94.1406 72.4244 94.1406 67.5781V64.1445C97.5506 62.9352 100 59.6787 100 55.8594V44.1406C100 40.3213 97.5506 37.0648 94.1406 35.8555V28.793C97.5506 27.5836 100 24.3271 100 20.5078ZM8.78906 94.1406C7.17363 94.1406 5.85938 92.8264 5.85938 91.2109C5.85938 89.5955 7.17363 88.2812 8.78906 88.2812C10.4045 88.2812 11.7188 89.5955 11.7188 91.2109C11.7188 92.8264 10.4045 94.1406 8.78906 94.1406ZM91.2109 88.2812C92.8264 88.2812 94.1406 89.5955 94.1406 91.2109C94.1406 92.8264 92.8264 94.1406 91.2109 94.1406C89.5955 94.1406 88.2812 92.8264 88.2812 91.2109C88.2812 89.5955 89.5955 88.2812 91.2109 88.2812ZM50 94.1406C48.3846 94.1406 47.0703 92.8264 47.0703 91.2109C47.0703 89.5955 48.3846 88.2812 50 88.2812C51.6154 88.2812 52.9297 89.5955 52.9297 91.2109C52.9297 92.8264 51.6154 94.1406 50 94.1406ZM88.2812 67.5781C88.2812 69.1936 86.967 70.5078 85.3516 70.5078H14.6484C13.033 70.5078 11.7188 69.1936 11.7188 67.5781V64.6484H88.2812V67.5781ZM94.1406 55.8594C94.1406 57.4748 92.8264 58.7891 91.2109 58.7891H8.78906C7.17363 58.7891 5.85938 57.4748 5.85938 55.8594V44.1406C5.85938 42.5252 7.17363 41.2109 8.78906 41.2109H91.2109C92.8264 41.2109 94.1406 42.5252 94.1406 44.1406V55.8594ZM11.7188 35.3516V29.2969H88.2812V35.3516H11.7188ZM91.2109 23.4375H8.78906C7.17363 23.4375 5.85938 22.1232 5.85938 20.5078V8.78906C5.85938 7.17363 7.17363 5.85938 8.78906 5.85938H91.2109C92.8264 5.85938 94.1406 7.17363 94.1406 8.78906V20.5078C94.1406 22.1232 92.8264 23.4375 91.2109 23.4375Z" fill="#FEFDFE"/>
<path d="M85.3516 11.7188H55.8594C54.2414 11.7188 52.9297 13.0305 52.9297 14.6484C52.9297 16.2664 54.2414 17.5781 55.8594 17.5781H85.3516C86.9695 17.5781 88.2812 16.2664 88.2812 14.6484C88.2812 13.0305 86.9695 11.7188 85.3516 11.7188Z" fill="#FEFDFE"/>
<path d="M14.6484 52.9297C16.2665 52.9297 17.5781 51.618 17.5781 50C17.5781 48.382 16.2665 47.0703 14.6484 47.0703C13.0304 47.0703 11.7188 48.382 11.7188 50C11.7188 51.618 13.0304 52.9297 14.6484 52.9297Z" fill="#FEFDFE"/>
<path d="M26.3672 52.9297C27.9852 52.9297 29.2969 51.618 29.2969 50C29.2969 48.382 27.9852 47.0703 26.3672 47.0703C24.7492 47.0703 23.4375 48.382 23.4375 50C23.4375 51.618 24.7492 52.9297 26.3672 52.9297Z" fill="#FEFDFE"/>
<path d="M38.2812 52.9297C39.8993 52.9297 41.2109 51.618 41.2109 50C41.2109 48.382 39.8993 47.0703 38.2812 47.0703C36.6632 47.0703 35.3516 48.382 35.3516 50C35.3516 51.618 36.6632 52.9297 38.2812 52.9297Z" fill="#FEFDFE"/>
<path d="M85.3516 47.0703H55.8594C54.2414 47.0703 52.9297 48.382 52.9297 50C52.9297 51.618 54.2414 52.9297 55.8594 52.9297H85.3516C86.9695 52.9297 88.2812 51.618 88.2812 50C88.2812 48.382 86.9695 47.0703 85.3516 47.0703Z" fill="#FEFDFE"/>
</svg>
