<svg width="100" height="100" viewBox="0 0 100 100" fill="none" xmlns="http://www.w3.org/2000/svg">
<path d="M91.2109 0H8.78906C3.94277 0 0 3.94277 0 8.78906V91.2109C0 96.0572 3.94277 100 8.78906 100H91.2109C96.0572 100 100 96.0572 100 91.2109V8.78906C100 3.94277 96.0572 0 91.2109 0ZM5.85938 8.78906C5.85938 7.17363 7.17363 5.85938 8.78906 5.85938H23.4375V23.4375H5.85938V8.78906ZM94.1406 91.2109C94.1406 92.8264 92.8264 94.1406 91.2109 94.1406H8.78906C7.17363 94.1406 5.85938 92.8264 5.85938 91.2109V29.2969H94.1406V91.2109ZM94.1406 23.4375H29.2969V5.85938H91.2109C92.8264 5.85938 94.1406 7.17363 94.1406 8.78906V23.4375Z" fill="#FEFDFE"/>
<path d="M85.3516 11.7188H79.4922C77.8742 11.7188 76.5625 13.0305 76.5625 14.6484C76.5625 16.2664 77.8742 17.5781 79.4922 17.5781H85.3516C86.9695 17.5781 88.2812 16.2664 88.2812 14.6484C88.2812 13.0305 86.9695 11.7188 85.3516 11.7188Z" fill="#FEFDFE"/>
<path d="M67.5781 11.7188H61.7188C60.1008 11.7188 58.7891 13.0305 58.7891 14.6484C58.7891 16.2664 60.1008 17.5781 61.7188 17.5781H67.5781C69.1961 17.5781 70.5078 16.2664 70.5078 14.6484C70.5078 13.0305 69.1961 11.7188 67.5781 11.7188Z" fill="#FEFDFE"/>
<path d="M50 11.7188H44.1406C42.5227 11.7188 41.2109 13.0305 41.2109 14.6484C41.2109 16.2664 42.5227 17.5781 44.1406 17.5781H50C51.618 17.5781 52.9297 16.2664 52.9297 14.6484C52.9297 13.0305 51.618 11.7188 50 11.7188Z" fill="#FEFDFE"/>
<path d="M55.8594 35.3516H14.6484C13.0305 35.3516 11.7188 36.6633 11.7188 38.2812V50C11.7188 51.618 13.0305 52.9297 14.6484 52.9297H55.8594C57.4773 52.9297 58.7891 51.618 58.7891 50V38.2812C58.7891 36.6633 57.4773 35.3516 55.8594 35.3516ZM52.9297 47.0703H17.5781V41.2109H52.9297V47.0703Z" fill="#FEFDFE"/>
<path d="M85.3516 35.3516H67.5781C65.9602 35.3516 64.6484 36.6633 64.6484 38.2812V85.3516C64.6484 86.9695 65.9602 88.2812 67.5781 88.2812H85.3516C86.9695 88.2812 88.2812 86.9695 88.2812 85.3516V38.2812C88.2812 36.6633 86.9695 35.3516 85.3516 35.3516ZM82.4219 82.4219H70.5078V41.2109H82.4219V82.4219Z" fill="#FEFDFE"/>
<path d="M55.8594 58.7891H14.6484C13.0305 58.7891 11.7188 60.1008 11.7188 61.7188V85.3516C11.7188 86.9695 13.0305 88.2812 14.6484 88.2812H55.8594C57.4773 88.2812 58.7891 86.9695 58.7891 85.3516V61.7188C58.7891 60.1008 57.4773 58.7891 55.8594 58.7891ZM52.9297 82.4219H17.5781V64.6484H52.9297V82.4219Z" fill="#FEFDFE"/>
</svg>
