<svg width="100" height="100" viewBox="0 0 100 100" fill="none" xmlns="http://www.w3.org/2000/svg">
<g clip-path="url(#clip0)">
<path d="M97.0703 0H85.3516C83.7336 0 82.4219 1.31172 82.4219 2.92969V5.85938H58.2852C57.0758 2.44961 53.8193 0 50 0C46.1807 0 42.9242 2.44961 41.7148 5.85938H17.5781V2.92969C17.5781 1.31172 16.2664 0 14.6484 0H2.92969C1.31172 0 0 1.31172 0 2.92969V14.6484C0 16.2664 1.31172 17.5781 2.92969 17.5781H14.6484C16.2664 17.5781 17.5781 16.2664 17.5781 14.6484V11.6797H29.7611C19.1916 18.3738 12.7666 29.6826 11.9938 41.6879C8.54258 42.8746 6.05469 46.1512 6.05469 50C6.05469 54.8463 9.99746 58.7891 14.8438 58.7891C19.69 58.7891 23.6328 54.8463 23.6328 50C23.6328 46.2148 21.2275 42.9809 17.8652 41.7461C18.9055 27.9479 28.8414 16.0637 42.1281 12.6918C43.5684 15.5848 46.5549 17.5781 50 17.5781C53.4451 17.5781 56.4316 15.5848 57.8719 12.692C71.1588 16.0639 81.0945 27.948 82.1348 41.7463C78.7725 42.9809 76.3672 46.2148 76.3672 50C76.3672 54.8463 80.31 58.7891 85.1562 58.7891C90.0025 58.7891 93.9453 54.8463 93.9453 50C93.9453 46.1512 91.4574 42.8746 88.0062 41.6879C87.2318 29.6586 80.7877 18.3998 70.2389 11.7188H82.4219V14.6484C82.4219 16.2664 83.7336 17.5781 85.3516 17.5781H97.0703C98.6883 17.5781 100 16.2664 100 14.6484V2.92969C100 1.31172 98.6883 0 97.0703 0ZM11.7188 11.7188H5.85938V5.85938H11.7188V11.7188ZM14.8438 52.9297C13.2283 52.9297 11.9141 51.6154 11.9141 50C11.9141 48.3846 13.2283 47.0703 14.8438 47.0703C16.4592 47.0703 17.7734 48.3846 17.7734 50C17.7734 51.6154 16.4592 52.9297 14.8438 52.9297ZM50 11.7188C48.3846 11.7188 47.0703 10.4045 47.0703 8.78906C47.0703 7.17363 48.3846 5.85938 50 5.85938C51.6154 5.85938 52.9297 7.17363 52.9297 8.78906C52.9297 10.4045 51.6154 11.7188 50 11.7188ZM85.1562 47.0703C86.7717 47.0703 88.0859 48.3846 88.0859 50C88.0859 51.6154 86.7717 52.9297 85.1562 52.9297C83.5408 52.9297 82.2266 51.6154 82.2266 50C82.2266 48.3846 83.5408 47.0703 85.1562 47.0703ZM94.1406 11.7188H88.2812V5.85938H94.1406V11.7188Z" fill="#FEFDFE"/>
<path d="M75.875 60.0935L52.4375 24.9375C52.4367 24.9363 52.4358 24.9352 52.435 24.9338C52.4266 24.9213 52.4174 24.9094 52.4088 24.8971C52.3686 24.8387 52.3262 24.7824 52.282 24.7275C51.0475 23.1935 48.6967 23.2971 47.5912 24.8971C47.5826 24.9094 47.5734 24.9213 47.5651 24.9338C47.5643 24.9352 47.5633 24.9361 47.5625 24.9375L24.125 60.0937C23.3502 61.2557 23.5035 62.8029 24.491 63.7904C30.3361 69.6355 34.0565 77.2762 35.0699 85.4508C34.615 85.8186 34.1758 86.2123 33.7594 86.6385C31.0076 89.4533 29.4922 93.1582 29.4922 97.0703C29.4922 98.6883 30.8039 100 32.4219 100H67.5781C69.1961 100 70.5078 98.6883 70.5078 97.0703C70.5078 93.1582 68.9924 89.4533 66.2408 86.6383C65.8242 86.2121 65.3852 85.8184 64.9301 85.4506C65.9434 77.2756 69.6637 69.635 75.5088 63.7904C76.4965 62.8029 76.6498 61.2555 75.875 60.0935ZM50 58.7891C51.6154 58.7891 52.9297 60.1033 52.9297 61.7187C52.9297 63.3342 51.6154 64.6484 50 64.6484C48.3846 64.6484 47.0703 63.3342 47.0703 61.7187C47.0703 60.1033 48.3846 58.7891 50 58.7891ZM35.8512 94.1406C37.0701 90.6576 40.3744 88.0859 44.1406 88.0859H55.8594C59.6256 88.0859 62.9299 90.6576 64.1488 94.1406H35.8512ZM59.4229 82.6725C58.2705 82.3783 57.076 82.2266 55.8594 82.2266H44.1406C42.924 82.2266 41.7295 82.3783 40.5772 82.6727C39.2061 74.7764 35.6453 67.3951 30.294 61.4033L47.0703 36.2387V53.4338C43.6604 54.6432 41.2109 57.8996 41.2109 61.7189C41.2109 66.5652 45.1537 70.508 50 70.508C54.8463 70.508 58.7891 66.5652 58.7891 61.7189C58.7891 57.8996 56.3397 54.6432 52.9297 53.4338V36.2387L69.7063 61.4033C64.3547 67.3945 60.7938 74.776 59.4229 82.6725Z" fill="#FEFDFE"/>
</g>
<defs>
<clipPath id="clip0">
<rect width="100" height="100" fill="white"/>
</clipPath>
</defs>
</svg>
