<svg width="370" height="370" viewBox="0 0 370 370" fill="none" xmlns="http://www.w3.org/2000/svg">
<rect width="370" height="370" rx="9" fill="#8844EE"/>
<g clip-path="url(#clip0)">
<path d="M56.4412 212.616C54.4633 212.67 52.5045 212.218 50.7501 211.303C48.9958 210.389 47.504 209.041 46.416 207.389C42.9914 210.591 38.5243 212.448 33.8384 212.616C25.4431 212.616 20.8918 206.697 22.4294 198.209C23.598 191.828 28.8258 185.432 30.2866 180.296C27.4574 178.574 23.2597 177.375 21.2916 180.896L20 180.112C21.0302 176.252 23.5211 173.684 27.1191 173.684C30.7171 173.684 33.3771 175.822 36.806 173.853H39.5429C38.0822 181.542 34.3919 187.692 32.4238 198.455C31.2245 205.051 33.454 208.05 37.2211 208.05C40.0147 207.698 42.5786 206.323 44.4171 204.19C42.9133 200.431 42.1561 196.415 42.1876 192.366C42.1876 183.018 46.4775 173.162 53.6735 173.162C57.3637 173.162 60.1006 175.729 60.1006 181.818C60.1006 187.907 56.4104 197.333 51.7053 203.252C51.9595 204.662 52.6976 205.939 53.7924 206.862C54.8871 207.786 56.2698 208.298 57.702 208.311C64.5597 208.311 69.357 198.025 69.357 188.507C69.357 178.989 65.2362 179.42 65.5899 176.206C65.6528 175.398 66.0322 174.648 66.6455 174.118C67.2588 173.588 68.0564 173.322 68.865 173.377C71.0022 173.377 73.816 176.083 73.816 187.061C73.816 201.054 66.3741 212.616 56.4412 212.616ZM54.8882 177.99C52.7509 177.99 50.6905 185.878 50.4291 194.027C50.3293 195.769 50.3601 197.517 50.5214 199.255C53.7508 193.91 55.7177 187.899 56.272 181.68C56.2566 178.912 55.7492 177.99 54.8882 177.99ZM87.9005 212.263C87.0038 212.356 86.0976 212.25 85.2461 211.954C84.3946 211.658 83.6187 211.178 82.9732 210.549C82.3277 209.919 81.8285 209.156 81.5108 208.312C81.1932 207.468 81.0649 206.565 81.135 205.666C81.135 201.899 86.0246 183.125 86.0246 180.035C86.0246 178.574 85.6863 177.713 84.3947 177.713C82.9503 177.95 81.6078 178.608 80.5354 179.604V176.944C82.7617 174.887 85.6552 173.703 88.6846 173.607C89.5868 173.526 90.4958 173.643 91.3481 173.95C92.2005 174.256 92.9758 174.745 93.6199 175.381C94.2641 176.018 94.7615 176.788 95.0776 177.637C95.3937 178.485 95.5208 179.393 95.4501 180.296C95.4501 184.063 90.5605 202.76 90.5605 205.836C90.5605 207.296 90.8988 208.157 92.1904 208.157C93.6153 207.916 94.9487 207.295 96.0498 206.358V208.926C93.8318 210.996 90.9332 212.183 87.9005 212.263ZM93.8971 158.001C94.5673 157.979 95.2341 158.104 95.8511 158.366C96.4682 158.629 97.0206 159.022 97.4699 159.52C97.9193 160.017 98.2547 160.607 98.4529 161.248C98.6511 161.888 98.7073 162.564 98.6176 163.229C98.4544 164.646 97.7837 165.956 96.7294 166.917C95.6751 167.878 94.3085 168.425 92.8823 168.457C92.2122 168.478 91.5454 168.354 90.9283 168.091C90.3113 167.829 89.7588 167.435 89.3095 166.937C88.8602 166.44 88.5247 165.85 88.3265 165.21C88.1283 164.569 88.0721 163.893 88.1619 163.229C88.325 161.811 88.9957 160.501 90.05 159.54C91.1043 158.579 92.4709 158.032 93.8971 158.001ZM112.933 204.206C112.502 206.528 112.763 208.142 114.393 208.142C115.824 207.918 117.161 207.294 118.253 206.343L118.406 208.926C116.18 210.983 113.287 212.168 110.257 212.263C104.937 212.263 102.877 208.403 103.661 203.606L108.889 173.853C110.626 163.921 110.027 162.614 104.706 162.614L105.045 160.215L121.082 158.093L112.933 204.206ZM158.03 204.129C157.6 206.451 157.769 208.157 159.491 208.157C160.924 207.884 162.257 207.231 163.351 206.266V208.926C161.139 211.006 158.236 212.194 155.201 212.263C153.667 212.375 152.147 211.908 150.94 210.955C149.733 210.001 148.928 208.63 148.682 207.112C147.397 208.814 145.739 210.201 143.837 211.165C141.934 212.13 139.836 212.647 137.703 212.678C127.509 212.678 123.219 203.683 125.187 192.874C127.155 182.064 136.335 173.238 146.714 173.238C149.171 173.187 151.6 173.764 153.771 174.914L154.033 173.546C156.062 162.967 155.124 162.614 149.804 162.614L150.066 160.215L166.18 158.093L158.03 204.129ZM146.975 177.113C141.055 177.113 137.119 184.14 135.566 192.797C133.936 201.884 134.966 208.173 140.533 208.173C144.3 208.173 148.59 203.56 149.881 196.518L153.049 178.682C151.222 177.573 149.11 177.028 146.975 177.113ZM185.123 212.693C173.207 212.693 169.947 204.113 171.408 195.887L175.298 173.853C177.097 163.905 176.497 162.537 171.177 162.537L171.515 160.138L187.599 158.093L184.339 176.775C186.841 174.599 190.019 173.355 193.334 173.254C203.713 173.254 208.587 182.08 206.711 192.889C204.835 203.698 195.287 212.693 185.123 212.693ZM190.689 177.328C188.957 177.364 187.28 177.947 185.899 178.994C184.518 180.041 183.504 181.498 183.001 183.156L180.602 196.994C179.142 205.221 182.063 208.573 185.753 208.573C191.15 208.573 194.502 202.576 196.301 192.72C197.9 183.894 196.44 177.375 190.674 177.375L190.689 177.328ZM222.963 197.871C222.963 204.467 226.131 207.988 232.189 207.988C235.264 207.988 239.739 205.851 242.568 203.022L243.767 205.759C241.735 207.912 239.292 209.637 236.583 210.831C233.873 212.025 230.952 212.663 227.991 212.709C218.996 212.709 212.907 206.02 212.907 196.933C212.907 183.479 224.055 173.269 234.772 173.269C241.292 173.269 244.966 176.867 244.966 181.065C244.89 187.584 238.708 194.903 222.963 197.871ZM234.019 177.205C229.129 177.205 224.424 184.325 223.133 194.519C232.989 192.12 237.186 185.432 237.278 181.142C237.263 178.743 236.141 177.205 234.003 177.205H234.019ZM279.947 212.263C278.413 212.375 276.893 211.908 275.686 210.955C274.479 210.001 273.673 208.63 273.427 207.112C272.19 208.813 270.573 210.202 268.705 211.169C266.836 212.135 264.768 212.652 262.664 212.678C252.639 212.678 248.349 203.683 250.363 192.874C252.378 182.064 261.403 173.254 271.813 173.254C274.021 173.242 276.208 173.682 278.24 174.545H288.019L282.776 204.129C282.346 206.451 282.515 208.157 284.237 208.157C285.67 207.884 287.003 207.231 288.096 206.266V208.926C285.885 211.006 282.982 212.194 279.947 212.263ZM272.059 177.113C266.308 177.113 262.28 184.14 260.742 192.797C259.112 201.884 260.235 208.173 265.355 208.173C269.291 208.173 273.504 203.375 274.704 196.518L277.871 178.682C276.147 177.573 274.122 177.025 272.074 177.113H272.059ZM318.018 183.371C315.696 183.371 315.096 181.572 314.42 179.681C314.192 178.728 313.639 177.884 312.856 177.295C312.073 176.705 311.109 176.407 310.13 176.452C308.858 176.385 307.608 176.796 306.623 177.604C305.639 178.412 304.992 179.559 304.81 180.819C304.548 183.141 306.271 185.109 309.53 187.938L313.897 191.536C315.525 192.769 316.785 194.423 317.541 196.32C318.297 198.217 318.52 200.284 318.187 202.299C317.08 208.726 311.76 212.678 304.641 212.678C296.061 212.678 290.587 207.619 291.187 204.19C291.325 203.288 291.781 202.465 292.471 201.868C293.161 201.27 294.041 200.938 294.954 200.931C297.183 200.931 298.029 202.637 298.721 204.867C299.165 206.147 300.018 207.245 301.15 207.99C302.282 208.735 303.628 209.086 304.979 208.988C306.315 209.051 307.626 208.612 308.655 207.759C309.685 206.906 310.359 205.699 310.545 204.375C310.883 201.3 309.008 199.408 305.486 196.226L301.197 192.458C299.684 191.301 298.506 189.764 297.782 188.002C297.058 186.241 296.814 184.319 297.076 182.433C297.845 178.313 301.689 173.208 310.53 173.208C317.387 173.208 321.677 177.067 321.293 180.158C321.251 181.007 320.89 181.809 320.284 182.405C319.677 183 318.868 183.345 318.018 183.371ZM349.4 177.99H341.082L337.053 200.777C336.192 205.497 336.884 207.635 339.452 207.635C340.821 207.635 342.973 206.866 346.048 203.698L346.218 207.035C344.826 208.685 343.094 210.014 341.141 210.933C339.188 211.851 337.059 212.336 334.901 212.355C329.073 212.355 326.152 208.234 327.536 200.608L331.564 177.99H325.06L325.568 174.469H332.133L333.855 164.274H343.45L341.651 174.469H349.969L349.4 177.99Z" fill="white"/>
</g>
<defs>
<clipPath id="clip0">
<rect width="330" height="54.6925" fill="white" transform="translate(20 158)"/>
</clipPath>
</defs>
</svg>
