<svg width="370" height="370" viewBox="0 0 370 370" fill="none" xmlns="http://www.w3.org/2000/svg">
<rect width="370" height="370" rx="9" fill="url(#paint0_linear)"/>
<path d="M19 146.025H28.43V190.843H19V146.025Z" fill="#29292E"/>
<path d="M66.62 174.715C66.62 174.836 66.5595 175.682 66.4387 177.252H41.8361C42.2795 179.266 43.3271 180.856 44.9793 182.024C46.6316 183.192 48.6869 183.776 51.1452 183.776C52.8377 183.776 54.3287 183.534 55.6183 183.051C56.9482 182.528 58.1774 181.722 59.3057 180.635L64.323 186.071C61.2601 189.574 56.787 191.326 50.9034 191.326C47.2362 191.326 43.992 190.621 41.1711 189.212C38.3503 187.762 36.1741 185.769 34.6427 183.232C33.1114 180.695 32.3457 177.816 32.3457 174.595C32.3457 171.413 33.0912 168.554 34.5823 166.018C36.1137 163.44 38.1891 161.447 40.8085 160.038C43.4683 158.588 46.4302 157.863 49.6945 157.863C52.878 157.863 55.7594 158.548 58.3384 159.917C60.9177 161.286 62.9326 163.259 64.3833 165.836C65.8745 168.373 66.62 171.333 66.62 174.715ZM49.7548 164.991C47.6191 164.991 45.8258 165.595 44.3749 166.803C42.9242 168.011 42.0376 169.662 41.7153 171.756H57.734C57.4116 169.702 56.5251 168.071 55.0744 166.863C53.6235 165.615 51.8504 164.991 49.7548 164.991Z" fill="#29292E"/>
<path d="M91.456 189.273C90.5292 189.957 89.3806 190.481 88.0104 190.843C86.6805 191.165 85.2701 191.326 83.7791 191.326C79.9104 191.326 76.908 190.34 74.7723 188.367C72.6767 186.393 71.6289 183.494 71.6289 179.669V166.32H66.6118V159.071H71.6289V151.159H81.0588V159.071H89.159V166.32H81.0588V179.548C81.0588 180.917 81.4014 181.984 82.0866 182.749C82.8118 183.474 83.8194 183.836 85.109 183.836C86.6 183.836 87.8694 183.434 88.9172 182.628L91.456 189.273Z" fill="#29292E"/>
<path d="M135.981 157.863C140.051 157.863 143.275 159.071 145.652 161.488C148.07 163.863 149.279 167.447 149.279 172.239V190.843H139.849V173.689C139.849 171.112 139.305 169.199 138.217 167.951C137.169 166.662 135.658 166.018 133.684 166.018C131.467 166.018 129.714 166.742 128.425 168.192C127.135 169.602 126.49 171.716 126.49 174.534V190.843H117.06V173.689C117.06 168.575 115.005 166.018 110.894 166.018C108.718 166.018 106.985 166.742 105.696 168.192C104.406 169.602 103.762 171.716 103.762 174.534V190.843H94.3315V158.346H103.339V162.091C104.547 160.722 106.018 159.675 107.751 158.951C109.524 158.226 111.459 157.863 113.554 157.863C115.851 157.863 117.927 158.326 119.78 159.253C121.634 160.138 123.125 161.447 124.254 163.179C125.583 161.488 127.256 160.179 129.271 159.253C131.326 158.326 133.563 157.863 135.981 157.863Z" fill="#29292E"/>
<path d="M187.524 174.715C187.524 174.836 187.463 175.682 187.343 177.252H162.74C163.183 179.266 164.231 180.856 165.883 182.024C167.535 183.192 169.591 183.776 172.049 183.776C173.742 183.776 175.233 183.534 176.522 183.051C177.852 182.528 179.081 181.722 180.21 180.635L185.227 186.071C182.164 189.574 177.691 191.326 171.807 191.326C168.14 191.326 164.896 190.621 162.075 189.212C159.254 187.762 157.078 185.769 155.546 183.232C154.015 180.695 153.25 177.816 153.25 174.595C153.25 171.413 153.995 168.555 155.486 166.018C157.017 163.44 159.093 161.447 161.712 160.038C164.372 158.588 167.334 157.863 170.598 157.863C173.782 157.863 176.663 158.548 179.242 159.917C181.822 161.286 183.836 163.259 185.287 165.836C186.778 168.373 187.524 171.333 187.524 174.715ZM170.659 164.991C168.523 164.991 166.729 165.595 165.279 166.803C163.828 168.011 162.941 169.662 162.619 171.756H178.638C178.315 169.702 177.429 168.071 175.978 166.863C174.527 165.615 172.754 164.991 170.659 164.991Z" fill="#29292E"/>
<path d="M242.659 158.346L236.191 190.843H227.245L227.849 187.642C225.149 190.098 221.824 191.326 217.875 191.326C215.336 191.326 212.999 190.742 210.863 189.574C208.727 188.407 207.015 186.735 205.725 184.561C204.476 182.346 203.851 179.749 203.851 176.769C203.851 173.185 204.637 169.964 206.209 167.105C207.821 164.206 209.997 161.951 212.737 160.34C215.477 158.689 218.5 157.863 221.804 157.863C226.801 157.863 230.327 159.494 232.383 162.756L233.228 158.346H242.659ZM220.777 183.534C222.63 183.534 224.283 183.091 225.733 182.205C227.184 181.279 228.313 180.011 229.119 178.4C229.925 176.789 230.327 174.937 230.327 172.843C230.327 170.628 229.663 168.877 228.333 167.588C227.043 166.3 225.23 165.655 222.892 165.655C221.039 165.655 219.386 166.118 217.936 167.044C216.485 167.93 215.356 169.179 214.55 170.789C213.744 172.4 213.341 174.252 213.341 176.346C213.341 178.561 213.986 180.313 215.276 181.601C216.606 182.89 218.439 183.534 220.777 183.534Z" fill="url(#paint1_linear)"/>
<path d="M254.352 191.326C251.531 191.326 248.851 191.024 246.313 190.42C243.815 189.776 241.86 188.95 240.45 187.944L244.076 181.118C245.486 182.044 247.198 182.789 249.214 183.353C251.269 183.917 253.325 184.199 255.378 184.199C257.516 184.199 259.108 183.937 260.156 183.413C261.204 182.85 261.726 182.064 261.726 181.058C261.726 180.252 261.263 179.668 260.337 179.306C259.409 178.944 257.919 178.561 255.863 178.158C253.525 177.716 251.592 177.232 250.059 176.709C248.569 176.185 247.259 175.34 246.132 174.172C245.044 172.964 244.5 171.333 244.5 169.279C244.5 165.695 245.99 162.897 248.971 160.884C251.995 158.87 255.943 157.863 260.82 157.863C263.076 157.863 265.273 158.105 267.408 158.588C269.544 159.071 271.357 159.736 272.85 160.581L269.464 167.467C266.803 165.816 263.601 164.991 259.852 164.991C257.797 164.991 256.226 165.293 255.138 165.897C254.09 166.501 253.565 167.266 253.565 168.192C253.565 169.038 254.029 169.662 254.957 170.065C255.882 170.427 257.434 170.83 259.612 171.273C261.908 171.716 263.782 172.199 265.232 172.722C266.723 173.205 268.013 174.031 269.101 175.199C270.189 176.366 270.733 177.957 270.733 179.971C270.733 183.595 269.202 186.393 266.139 188.366C263.118 190.34 259.188 191.326 254.352 191.326Z" fill="url(#paint2_linear)"/>
<path d="M296.439 172.481L307.622 190.843H296.682L288.944 178.219L283.201 182.991L281.629 190.843H272.198L281.146 146.025H290.576L285.558 171.091L301.153 158.346H313.426L296.439 172.481Z" fill="url(#paint3_linear)"/>
<path d="M189.948 139.501V124.4C189.948 117.729 195.361 112.32 202.038 112.32H332.002C338.679 112.32 344.093 117.729 344.093 124.4V208.964C344.093 215.635 338.679 221.044 332.002 221.044H310.845L317.916 254.015C318.534 256.897 315.078 258.866 312.911 256.867L280.621 227.084H202.038C195.361 227.084 189.948 221.676 189.948 215.004V208.964" stroke="url(#paint4_linear)" stroke-width="4.30079"/>
<defs>
<linearGradient id="paint0_linear" x1="185" y1="0" x2="185" y2="370" gradientUnits="userSpaceOnUse">
<stop stop-color="#E559F9" stop-opacity="0.85"/>
<stop offset="1" stop-color="#835AFD" stop-opacity="0.22"/>
</linearGradient>
<linearGradient id="paint1_linear" x1="203.851" y1="146.025" x2="229.283" y2="217.898" gradientUnits="userSpaceOnUse">
<stop stop-color="#485BFF"/>
<stop offset="1" stop-color="#FF59F8"/>
</linearGradient>
<linearGradient id="paint2_linear" x1="203.852" y1="146.025" x2="229.283" y2="217.898" gradientUnits="userSpaceOnUse">
<stop stop-color="#485BFF"/>
<stop offset="1" stop-color="#FF59F8"/>
</linearGradient>
<linearGradient id="paint3_linear" x1="203.851" y1="146.025" x2="229.283" y2="217.898" gradientUnits="userSpaceOnUse">
<stop stop-color="#485BFF"/>
<stop offset="1" stop-color="#FF59F8"/>
</linearGradient>
<linearGradient id="paint4_linear" x1="189.948" y1="112.32" x2="316.772" y2="269.461" gradientUnits="userSpaceOnUse">
<stop stop-color="#485BFF"/>
<stop offset="1" stop-color="#FF59F8"/>
</linearGradient>
</defs>
</svg>
