<svg width="370" height="370" viewBox="0 0 370 370" fill="none" xmlns="http://www.w3.org/2000/svg">
<path d="M0 8.99999C0 4.02943 4.02944 0 9 0H361C365.971 0 370 4.02944 370 9V361C370 365.971 365.971 370 361 370H8.99999C4.02943 370 0 365.971 0 361V8.99999Z" fill="#2C70FF"/>
<path d="M31.752 213.42C30.688 213.42 29.848 213.112 29.232 212.496C28.616 211.824 28.308 210.956 28.308 209.892V157.14C28.308 156.132 28.616 155.32 29.232 154.704C29.904 154.088 30.772 153.78 31.836 153.78H62.412C63.42 153.78 64.204 154.032 64.764 154.536C65.324 155.04 65.604 155.768 65.604 156.72C65.604 157.616 65.324 158.316 64.764 158.82C64.204 159.324 63.42 159.576 62.412 159.576H35.112V179.988H60.732C61.74 179.988 62.524 180.24 63.084 180.744C63.644 181.248 63.924 181.976 63.924 182.928C63.924 183.824 63.644 184.524 63.084 185.028C62.524 185.532 61.74 185.784 60.732 185.784H35.112V209.892C35.112 210.956 34.804 211.824 34.188 212.496C33.628 213.112 32.816 213.42 31.752 213.42ZM80.8651 213.42C79.8571 213.42 79.0171 213.14 78.3451 212.58C77.7291 211.964 77.4211 211.124 77.4211 210.06V156.72C77.4211 155.656 77.7291 154.844 78.3451 154.284C79.0171 153.668 79.8571 153.36 80.8651 153.36C81.8171 153.36 82.6011 153.668 83.2171 154.284C83.8891 154.844 84.2251 155.656 84.2251 156.72V210.06C84.2251 211.124 83.8891 211.964 83.2171 212.58C82.6011 213.14 81.8171 213.42 80.8651 213.42ZM128.613 203.508C129.229 203.508 129.761 203.76 130.209 204.264C130.657 204.768 130.881 205.412 130.881 206.196C130.881 207.596 129.901 208.884 127.941 210.06C125.925 211.236 123.797 212.132 121.557 212.748C119.317 213.308 117.133 213.588 115.005 213.588C108.677 213.588 103.665 211.712 99.9685 207.96C96.3285 204.208 94.5085 199.028 94.5085 192.42C94.5085 188.22 95.3205 184.524 96.9445 181.332C98.5685 178.084 100.837 175.564 103.749 173.772C106.717 171.98 110.077 171.084 113.829 171.084C119.149 171.084 123.377 172.82 126.513 176.292C129.649 179.764 131.217 184.468 131.217 190.404C131.217 191.524 130.993 192.336 130.545 192.84C130.097 193.344 129.369 193.596 128.361 193.596H101.313C101.817 203.228 106.381 208.044 115.005 208.044C117.189 208.044 119.065 207.764 120.633 207.204C122.201 206.588 123.881 205.776 125.673 204.768C127.129 203.928 128.109 203.508 128.613 203.508ZM113.913 176.376C110.329 176.376 107.445 177.496 105.261 179.736C103.133 181.976 101.873 185.14 101.481 189.228H125.253C125.141 185.084 124.105 181.92 122.145 179.736C120.185 177.496 117.441 176.376 113.913 176.376ZM174.021 207.792C174.693 208.464 175.029 209.276 175.029 210.228C175.029 211.068 174.721 211.796 174.105 212.412C173.489 213.028 172.761 213.336 171.921 213.336C171.025 213.336 170.213 212.944 169.485 212.16L155.877 196.62L142.353 212.16C141.625 212.944 140.813 213.336 139.917 213.336C139.077 213.336 138.321 213.028 137.649 212.412C137.033 211.796 136.725 211.04 136.725 210.144C136.725 209.304 137.061 208.52 137.733 207.792L151.677 192.084L138.321 176.88C137.649 176.096 137.313 175.312 137.313 174.528C137.313 173.632 137.621 172.876 138.237 172.26C138.909 171.644 139.637 171.336 140.421 171.336C141.317 171.336 142.129 171.728 142.857 172.512L155.877 187.464L168.897 172.512C169.625 171.728 170.437 171.336 171.333 171.336C172.173 171.336 172.901 171.644 173.517 172.26C174.133 172.876 174.441 173.604 174.441 174.444C174.441 175.396 174.105 176.208 173.433 176.88L160.077 192.084L174.021 207.792ZM218.506 182.592C221.922 183.488 224.554 185.168 226.402 187.632C228.306 190.096 229.258 193.176 229.258 196.872C229.258 202.08 227.55 206.084 224.134 208.884C220.718 211.628 215.874 213 209.602 213H188.434C187.37 213 186.502 212.692 185.83 212.076C185.214 211.46 184.906 210.648 184.906 209.64V157.14C184.906 156.132 185.214 155.32 185.83 154.704C186.502 154.088 187.37 153.78 188.434 153.78H208.678C214.782 153.78 219.514 155.124 222.874 157.812C226.234 160.5 227.914 164.308 227.914 169.236C227.914 172.428 227.074 175.172 225.394 177.468C223.77 179.764 221.474 181.472 218.506 182.592ZM191.71 180.072H207.67C212.094 180.072 215.426 179.176 217.666 177.384C219.962 175.592 221.11 172.988 221.11 169.572C221.11 162.852 216.63 159.492 207.67 159.492H191.71V180.072ZM208.93 207.288C213.578 207.288 216.994 206.448 219.178 204.768C221.418 203.032 222.538 200.344 222.538 196.704C222.538 189.424 218.002 185.784 208.93 185.784H191.71V207.288H208.93ZM243.943 213.42C242.935 213.42 242.095 213.14 241.423 212.58C240.807 211.964 240.499 211.124 240.499 210.06V156.72C240.499 155.656 240.807 154.844 241.423 154.284C242.095 153.668 242.935 153.36 243.943 153.36C244.895 153.36 245.679 153.668 246.295 154.284C246.967 154.844 247.303 155.656 247.303 156.72V210.06C247.303 211.124 246.967 211.964 246.295 212.58C245.679 213.14 244.895 213.42 243.943 213.42ZM276.991 213.588C273.127 213.588 269.711 212.72 266.743 210.984C263.831 209.248 261.563 206.784 259.939 203.592C258.371 200.344 257.587 196.592 257.587 192.336C257.587 188.08 258.371 184.356 259.939 181.164C261.563 177.916 263.831 175.424 266.743 173.688C269.711 171.952 273.127 171.084 276.991 171.084C280.855 171.084 284.271 171.952 287.239 173.688C290.207 175.424 292.475 177.916 294.043 181.164C295.667 184.356 296.479 188.08 296.479 192.336C296.479 196.592 295.667 200.344 294.043 203.592C292.475 206.784 290.207 209.248 287.239 210.984C284.271 212.72 280.855 213.588 276.991 213.588ZM276.991 207.96C281.023 207.96 284.103 206.644 286.231 204.012C288.415 201.324 289.507 197.432 289.507 192.336C289.507 187.352 288.415 183.516 286.231 180.828C284.047 178.084 280.967 176.712 276.991 176.712C273.015 176.712 269.935 178.084 267.751 180.828C265.567 183.516 264.475 187.352 264.475 192.336C264.475 197.376 265.539 201.24 267.667 203.928C269.851 206.616 272.959 207.96 276.991 207.96ZM339.796 171.252C340.86 171.252 341.7 171.56 342.316 172.176C342.932 172.792 343.24 173.604 343.24 174.612V210.228C343.24 216.332 341.672 220.924 338.536 224.004C335.4 227.14 330.752 228.708 324.592 228.708C318.6 228.708 313.616 227.532 309.64 225.18C307.624 224.06 306.616 222.772 306.616 221.316C306.616 220.532 306.812 219.888 307.204 219.384C307.652 218.88 308.212 218.628 308.884 218.628C309.444 218.628 310.452 219.02 311.908 219.804C313.868 220.812 315.8 221.624 317.704 222.24C319.608 222.856 321.876 223.164 324.508 223.164C328.484 223.164 331.48 222.1 333.496 219.972C335.512 217.9 336.52 214.848 336.52 210.816V203.592C335.344 206.224 333.524 208.24 331.06 209.64C328.652 211.04 325.796 211.74 322.492 211.74C318.908 211.74 315.716 210.9 312.916 209.22C310.172 207.54 308.016 205.16 306.448 202.08C304.936 199 304.18 195.444 304.18 191.412C304.18 187.38 304.936 183.824 306.448 180.744C308.016 177.664 310.172 175.284 312.916 173.604C315.716 171.924 318.908 171.084 322.492 171.084C325.74 171.084 328.568 171.784 330.976 173.184C333.384 174.584 335.204 176.572 336.436 179.148V174.612C336.436 173.604 336.716 172.792 337.276 172.176C337.892 171.56 338.732 171.252 339.796 171.252ZM323.836 206.112C327.756 206.112 330.836 204.824 333.076 202.248C335.316 199.616 336.436 196.004 336.436 191.412C336.436 186.876 335.316 183.32 333.076 180.744C330.892 178.112 327.812 176.796 323.836 176.796C319.86 176.796 316.724 178.112 314.428 180.744C312.188 183.32 311.068 186.876 311.068 191.412C311.068 196.004 312.188 199.616 314.428 202.248C316.724 204.824 319.86 206.112 323.836 206.112Z" fill="white"/>
</svg>
