<svg width="370" height="370" viewBox="0 0 370 370" fill="none" xmlns="http://www.w3.org/2000/svg">
<path d="M0 8.99999C0 4.02943 4.02944 0 9 0H361C365.971 0 370 4.02944 370 9V361C370 365.971 365.971 370 361 370H8.99999C4.02943 370 0 365.971 0 361V8.99999Z" fill="#FEC63E"/>
<g clip-path="url(#clip0)">
<path d="M50.1127 114.493C55.2706 114.289 67.8502 113.877 74.2456 112.434C74.0377 115.112 73.6252 123.346 73.6252 138.99V145.989C79.4002 141.253 84.1456 138.783 89.9206 138.783C96.9331 138.783 101.675 141.872 104.771 146.4C107.45 150.725 108.896 156.693 108.896 163.076C108.896 182.218 99.8206 193.129 81.4627 193.129C76.5127 193.129 70.5298 191.482 67.0252 189.628C64.5502 190.451 61.2502 192.098 57.9502 193.129L56.9173 192.51C57.1252 186.95 57.1252 176.454 57.1252 162.249V135.901C57.1252 129.314 56.9173 124.785 56.7127 120.876C56.5048 118.198 55.8877 117.786 49.7002 117.786L50.1127 114.493V114.493ZM81.4627 189.216C88.4752 189.216 91.7752 180.775 91.7752 165.131C91.7752 158.751 90.7423 153.399 88.8877 149.898C87.2377 147.224 85.1752 145.781 82.2877 145.781C79.1923 145.781 76.5127 147.636 74.6548 150.31C73.6252 151.752 73.2127 152.988 73.2127 169.248C73.2127 182.629 73.8331 183.041 74.6581 184.688C76.1002 187.777 78.7831 189.216 81.4627 189.216ZM144.988 191.894C140.655 191.894 136.325 191.479 129.517 191.479C122.3 191.479 118.792 191.894 115.288 191.894V188.393C121.063 188.185 121.888 187.158 122.096 184.892C122.3 182.422 122.508 178.512 122.508 172.13V158.955C122.508 153.603 122.508 149.282 122.3 147.428C122.092 145.577 121.267 144.958 115.905 145.165V141.664C123.125 141.048 131.788 140.841 138.8 139.402C138.592 142.079 138.388 147.02 138.388 158.34V172.545C138.388 179.132 138.596 182.013 138.8 184.895C139.008 187.777 139.833 188.189 144.988 188.805V191.894ZM129.517 115.524C134.883 115.524 137.975 118.613 137.975 124.169C137.975 128.905 134.467 132.199 129.105 132.199C124.363 132.199 121.063 128.905 121.063 124.169C121.063 119.229 124.363 115.524 129.521 115.524H129.517ZM150.35 114.493C158.396 114.289 167.883 113.465 172.833 112.434C172.554 120.94 172.416 129.449 172.417 137.959V163.692C176.338 162.661 184.792 152.368 188.092 146.4C188.713 145.165 188.713 144.546 187.063 144.546L182.525 144.135V140.637C190.158 140.844 197.996 140.429 205.833 140.018V143.519C200.058 144.138 197.788 144.55 195.517 146.4C192.425 149.078 188.917 152.783 185.617 156.693C188.092 161.841 198.408 180.778 202.325 185.923C203.563 187.777 205.421 188.393 207.483 188.393L210.367 188.6L210.163 192.098C200.263 192.098 191.805 192.51 187.267 193.333C184.792 187.57 177.367 173.572 175.1 169.248C173.863 166.985 173.242 166.162 172.417 166.366C172.417 174.807 172.213 178.924 172.625 184.892C172.833 187.57 173.45 188.393 179.021 188.597V192.098C175.1 192.098 170.975 191.687 164.171 191.687C156.125 191.687 152.621 192.098 149.525 192.098V188.597C154.888 188.393 155.713 187.365 155.921 185.304C156.125 182.833 156.33 177.482 156.33 166.778V140.225C156.33 131.784 156.33 125.404 156.125 120.052C156.125 118.817 155.3 118.198 153.65 118.198H150.142L150.35 114.493V114.493ZM100.646 242.736C97.1377 253.852 90.3331 259.204 78.9877 259.204C69.2923 259.204 63.1048 256.526 58.7752 250.763C55.4752 246.441 53.8252 240.059 53.8252 232.856C53.8252 217.004 63.5206 204.861 81.2581 204.861C91.9831 204.861 99.8206 209.801 99.8206 217.831C99.8206 223.387 95.2831 225.649 91.5706 225.649C90.3331 225.649 88.4752 225.241 87.4456 224.622C86.2081 223.798 85.5877 222.563 86.0002 220.917C86.2081 219.27 86.6206 218.239 86.6206 216.592C86.6206 211.448 84.7627 208.978 80.8456 208.978C74.4502 208.978 71.1502 218.242 71.1502 231.005C71.1502 236.149 71.7706 241.913 73.6252 245.411C75.6877 250.147 78.9877 252.821 83.9377 252.821C90.1252 252.821 94.0456 249.323 96.9331 241.294L100.646 242.736V242.736ZM112.4 227.711C112.4 221.124 112.192 215.976 111.78 213.299C111.575 211.859 110.75 211.243 109.305 211.243H105.592V207.742C111.78 207.535 120.238 207.123 126.217 205.272L126.838 205.684C127.25 208.154 127.663 214.125 127.871 217.831H128.28C130.966 210.624 134.675 204.861 142.308 204.861C146.641 204.861 149.941 208.362 149.941 213.094C149.941 219.889 144.783 221.947 142.721 221.947C140.661 221.947 139.216 221.328 138.596 219.886C137.566 217.623 136.946 216.388 134.886 216.388C132.616 216.388 131.378 218.446 129.936 221.74C129.316 223.594 128.903 225.653 128.903 229.15C128.903 240.885 128.903 247.472 129.111 250.354C129.316 253.233 130.346 254.056 138.596 254.264L138.391 257.765C132.616 257.557 127.458 257.35 121.478 257.35C115.291 257.35 110.753 257.557 105.596 257.765L106.213 254.264C111.163 254.056 112.4 253.44 112.4 251.382C112.608 248.5 112.813 242.94 112.813 236.561V227.708H112.4V227.711ZM182.321 218.242C182.321 212.064 180.255 208.77 176.13 208.77C171.388 208.77 169.121 211.448 169.121 216.388C169.121 217.831 169.325 219.066 169.53 220.301C169.738 221.532 169.325 222.771 168.296 223.387C166.85 224.418 164.375 225.241 162.521 225.241C158.6 225.241 155.3 223.383 155.3 218.858C155.3 212.271 164.996 204.861 178.608 204.861C189.742 204.861 194.692 209.389 196.55 212.271C197.583 213.918 198.2 215.772 198.2 217.831V248.088C198.2 251.589 199.233 252.413 200.471 252.413C202.121 252.413 203.975 249.735 204.8 245.206L208.308 246.853C206.45 255.706 201.088 259.411 193.663 259.411C187.267 259.411 183.763 256.734 182.73 251.382C177.78 256.322 172.625 259.411 167.263 259.411C158.6 259.411 152.825 253.648 152.825 244.175C152.825 238.412 155.3 235.118 159.633 233.267C166.642 230.178 177.163 227.092 182.317 223.387V218.239L182.321 218.242ZM169.325 241.089C169.325 245.618 171.183 250.558 175.721 250.558C179.021 250.558 180.463 248.5 181.496 246.441C181.905 245.411 182.113 243.56 182.113 241.501V227.504C179.842 228.946 176.338 230.593 173.655 232.24C171.18 233.887 169.325 235.942 169.325 241.089ZM210.163 206.715L216.763 206.919V203.626C216.971 194.98 219.033 188.597 223.571 184.069C227.696 179.952 232.646 177.893 238.625 177.893C247.083 177.893 251.621 182.01 251.621 187.362C251.621 191.275 248.321 193.949 243.78 193.949C241.305 193.949 239.655 192.302 239.655 189.832C239.655 185.511 239.038 182.013 235.946 182.013C233.88 182.013 232.646 183.864 232.23 187.365C231.821 190.659 232.438 196.834 232.85 206.507H242.958L242.338 210.624L232.85 211.243C232.642 215.153 232.642 221.947 232.642 229.974C232.642 237.592 232.642 244.383 232.85 249.735C233.058 252.413 233.471 253.44 235.738 253.648C237.8 253.852 239.45 254.056 241.308 254.056L240.889 257.557C236.972 257.557 230.784 257.145 225.422 257.145C219.851 257.145 213.251 257.557 209.539 257.557L209.747 254.056C215.109 253.852 215.934 253.233 216.142 250.97C216.551 247.469 216.551 242.117 216.551 234.914V211.036L209.542 210.624L210.159 206.712L210.163 206.715Z" fill="black"/>
<path d="M280.908 206.715L280.492 210.624L267.913 211.448C267.913 215.772 267.705 222.152 267.705 230.797C267.705 239.854 267.705 246.03 268.12 249.735C268.325 252.413 269.355 253.648 271.42 253.648C275.75 253.648 278.43 248.912 279.463 244.59H281.113L282.558 249.323C280.083 255.294 273.892 259.411 264.817 259.411C259.867 259.411 255.538 257.765 253.475 255.294C252.03 253.44 251.413 251.178 251.413 247.884C251.413 239.443 251.825 220.505 251.825 211.448L245.225 210.829L245.638 206.919H251.825C252.033 203.006 252.033 198.478 252.033 194.361C259.25 192.51 264.609 190.247 267.5 188.393L268.738 188.6C268.377 194.701 268.17 200.809 268.117 206.919H280.908V206.712V206.715Z" fill="black"/>
<path d="M333.5 99.4677V270.731H36.5V99.4677H333.5ZM350 83H20V287.199H350V83Z" fill="black"/>
</g>
<defs>
<clipPath id="clip0">
<rect width="330" height="204.199" fill="white" transform="translate(20 83)"/>
</clipPath>
</defs>
</svg>
