<svg width="370" height="370" viewBox="0 0 370 370" fill="none" xmlns="http://www.w3.org/2000/svg">
<path d="M0 8.99999C0 4.02943 4.02944 0 9 0H361C365.971 0 370 4.02944 370 9V361C370 365.971 365.971 370 361 370H8.99999C4.02943 370 0 365.971 0 361V8.99999Z" fill="#EDECE4"/>
<path d="M21.6416 85.1044C21.6416 86.4179 22.955 87.5671 24.5968 87.5671C30.9998 87.5671 31.4923 90.3582 31.4923 125.493C31.4923 146.507 30.8356 159.97 29.8506 160.627C28.8655 161.119 28.2088 162.761 28.2088 164.075C28.2088 166.045 32.97 166.373 56.1192 166.373H84.0297L85.0147 162.269C85.6714 159.97 85.6714 157.672 85.3431 157.343C85.0147 156.851 76.97 157.343 67.4476 158.164C56.2834 159.149 49.8804 158.985 48.7312 158C47.7461 157.015 47.2535 144.045 47.5819 124.015C48.0744 89.5373 48.567 87.5671 56.6118 87.5671C58.2535 87.5671 59.4028 86.7462 59.0744 85.4328C58.5819 84.1194 52.8356 83.2985 40.0297 82.9701C24.4326 82.6418 21.6416 82.9701 21.6416 85.1044Z" fill="black"/>
<path d="M265.612 86.0895C262.492 88.5522 256.91 97.9104 249.522 113.343C243.448 126.149 236.716 137.806 234.746 139.119C232.776 140.597 227.851 141.746 224.074 141.746C211.104 141.746 202.074 129.597 206.507 117.94C207.821 114.821 215.537 110.552 220.298 110.552C224.074 110.552 224.731 105.627 221.94 98.403C220.627 94.791 219.313 94.1343 214.06 94.1343C204.045 94.1343 198.955 102.836 198.955 119.582C198.955 133.045 205.686 144.373 217.015 150.448C224.731 154.552 227.194 155.045 234.582 154.224C241.642 153.403 244.269 153.896 251.492 157.672C266.269 165.388 280.552 162.433 288.104 150.284C290.239 147 295.164 137.149 298.94 128.612C306.164 112.03 309.448 107.269 315.03 104.149C319.955 101.687 324.716 101.851 331.448 105.134C339.492 108.91 343.433 115.97 343.433 126.478C343.433 133.701 342.612 136 338.507 140.761C335.552 144.045 331.119 147 327.343 147.821C320.612 149.463 320.119 151.761 324.06 161.448L326.194 166.537L333.582 162.761C344.254 157.343 349.015 147.164 349.179 129.433C349.179 118.433 348.522 114.821 344.91 108.09C337.522 93.6418 320.776 85.9254 307.313 90.5224C302.88 92.1642 301.403 91.8358 295.492 88.0597C286.134 81.8209 272.179 80.8358 265.612 86.0895ZM295.821 94.1343C297.955 95.4477 297.955 96.1045 295.985 99.388C294.836 101.358 290.239 111.373 285.806 121.716C273.492 150.776 266.433 157.672 254.119 152.582L248.045 150.119L252.97 141.418C255.597 136.657 260.194 126.478 262.985 118.925C266.104 110.881 270.701 102.507 273.985 98.8955C278.91 93.4776 280.716 92.4925 286.627 92.4925C290.239 92.4925 294.507 93.3134 295.821 94.1343Z" fill="black"/>
<path d="M107.836 109.567C96.5073 114.657 88.9551 127.627 88.9551 142.075C88.9551 165.224 108.985 175.075 131.806 162.925C137.06 159.97 141.492 156.687 141.492 155.209C141.492 152.746 141.328 152.746 127.866 157.507C120.477 160.134 119.492 160.134 114.239 157.672C108.164 154.716 101.925 144.537 104.716 141.91C105.537 141.09 114.895 137.642 125.567 134.358C144.448 128.448 144.776 128.284 144.776 123.522C144.776 116.463 141.985 112.194 135.746 109.567C128.686 106.612 114.403 106.612 107.836 109.567ZM126.552 116.463C132.463 124.015 131.149 126.313 119 130.418C112.761 132.388 106.851 134.358 105.537 134.851C103.731 135.507 103.403 134.522 104.224 129.597C106.686 114.493 119.328 107.269 126.552 116.463Z" fill="black"/>
<path d="M52.8357 199.045C38.2238 202.164 31.4925 209.716 31.4925 222.687C31.4925 232.373 35.4328 236.97 51.5223 246.328C71.2238 257.821 75.1641 265.702 66.1343 274.896C59.4029 281.627 52.5074 281.299 45.2835 274.075C42.1641 270.955 39.7014 267.015 39.7014 265.209C39.7014 259.299 36.9104 259.791 30.8357 266.851L24.9253 273.746L29.3581 278.343C38.2238 287.702 55.6268 288.522 70.4029 280.642C80.4178 275.224 85.6716 267.672 85.6716 258.806C85.6716 250.597 81.5671 245.015 71.2238 239.104C49.2238 226.627 44.6268 222.358 44.6268 214.149C44.6268 209.552 50.8656 204.134 56.2835 204.134C63.3432 204.134 67.6119 206.925 70.2387 213.328C73.0298 219.896 74.9999 220.224 81.5671 214.806C85.5074 211.522 86.1641 210.209 84.6865 207.91C79.7611 200.194 65.8059 196.254 52.8357 199.045Z" fill="black"/>
<path d="M108.985 228.925C90.7609 237.955 86.1639 271.94 101.925 282.448C109.149 287.209 122.612 286.224 133.283 280.313C147.567 272.104 150.03 264.552 135.746 272.269C124.91 278.015 118.343 277.687 112.925 271.448C108.164 265.537 106.194 257.493 107.671 248.791C109.477 239.104 111.776 234.343 116.209 231.881C122.283 228.761 126.224 231.552 130 242.388C131.313 246.164 132.134 246.657 134.433 245.343C141.985 241.239 143.627 239.104 142.477 234.836C140.179 225.642 122.283 222.358 108.985 228.925Z" fill="black"/>
<path d="M168.91 227.776C149.866 233.03 141.164 254.045 150.358 273.254C153.642 280.313 160.373 284.418 170.552 285.731C186.149 287.537 201.582 279.328 205.522 267.179C208.478 258.149 207.985 244.522 204.537 238.284C198.791 228.597 183.194 223.836 168.91 227.776ZM186.478 235.821C194.194 243.537 193.373 271.612 185.328 277.194C177.612 282.612 169.403 279.493 165.463 269.806C156.597 247.478 172.522 221.866 186.478 235.821Z" fill="black"/>
<path d="M211.761 229.582C208.313 231.881 205.522 234.836 205.522 236.149C205.522 239.104 206.343 239.269 210.283 236.642C211.925 235.657 214.552 235.328 216.029 235.821C218.328 236.806 218.656 240.254 218.656 260.776C218.656 286.716 218.492 286.224 228.343 282.776L233.597 280.97L233.268 260.448C232.776 237.955 232.612 238.448 243.447 235.328C247.059 234.343 249.029 234.672 251.656 236.806C254.94 239.433 255.268 241.731 256.089 260.612C256.746 279.985 257.074 281.627 260.522 283.925C265.447 287.045 270.373 285.731 278.417 279C285.313 273.09 285.477 268.657 278.582 271.776C270.865 275.224 269.88 273.254 269.388 252.075C268.895 235.493 268.238 231.881 265.612 228.925C261.343 224.328 251.328 224.493 240.82 229.254L232.612 233.03L230.97 229.746C228.343 224.493 219.313 224.493 211.761 229.582Z" fill="black"/>
<path d="M304.85 227.776C293.522 232.866 285.97 245.836 285.97 260.284C285.97 283.433 306 293.284 328.82 281.134C334.074 278.179 338.507 274.895 338.507 273.418C338.507 270.955 338.343 270.955 324.88 275.716C317.492 278.343 316.507 278.343 311.253 275.881C305.179 272.925 298.94 262.746 301.731 260.119C302.552 259.298 311.91 255.851 322.582 252.567C341.462 246.657 341.791 246.493 341.791 241.731C341.791 234.672 339 230.403 332.761 227.776C325.701 224.821 311.417 224.821 304.85 227.776ZM323.567 234.672C329.477 242.224 328.164 244.522 316.015 248.627C309.776 250.597 303.865 252.567 302.552 253.06C300.746 253.716 300.417 252.731 301.238 247.806C303.701 232.701 316.343 225.478 323.567 234.672Z" fill="black"/>
</svg>
